<svg xmlns="http://www.w3.org/2000/svg" viewBox="0 0 64 64" width="64" height="64">
  <!-- Background shape -->
  <rect width="64" height="64" fill="#217346" />

  <!-- Excel logo -->
  <path d="M44.615 3.385l9.692 9.692v39.923h-54v-64h37.308l7 7zm-8.307 13.615l-6.385-6.385h-20.923v54h46v-47.615zm-23.691 12.923c-1.103 0-2 .897-2 2s.897 2 2 2 2-.897 2-2-.897-2-2-2zm-6 0c-1.103 0-2 .897-2 2s.897 2 2 2 2-.897 2-2-.897-2-2-2zm3.5 13c0 1.657-1.343 3-3 3h-3.5v-4h3.5c1.657 0 3 1.343 3 3zm-5.5-10c0-1.105-.896-2-2-2h-1.5v4h1.5c1.104 0 2-.895 2-2zm13.5 7h-17c-1.657 0-3-1.343-3-3s1.343-3 3-3h17c1.657 0 3 1.343 3 3s-1.343 3-3 3zm0 6h-17c-1.657 0-3-1.343-3-3s1.343-3 3-3h17c1.657 0 3 1.343 3 3s-1.343 3-3 3zm0 6h-17c-1.657 0-3-1.343-3-3s1.343-3 3-3h17c1.657 0 3 1.343 3 3s-1.343 3-3 3zm12.5-27c0 1.105.896 2 2 2h1.5v-4h-1.5c-1.104 0-2 .895-2 2zm0 4c0 1.105.896 2 2 2h1.5v-4h-1.5c-1.104 0-2 .895-2 2zm0 4c0 1.105.896 2 2 2h1.5v-4h-1.5c-1.104 0-2 .895-2 2zm0 6c0 1.105.896 2 2 2h1.5v-4h-1.5c-1.104 0-2 .895-2 2zm0 4c0 1.105.896 2 2 2h1.5v-4h-1.5c-1.104 0-2 .895-2 2zm0 6c0 1.105.896 2 2 2h1.5v-4h-1.5c-1.104 0-2 .895-2 2zm0 6c0 1.105.896 2 2 2h1.5v-4h-1.5c-1.104 0-2 .895-2 2zm9.5-24c1.104 0 2-.895 2-2s-.896-2-2-2-2 .895-2 2 .896 2 2 2zm0 4c1.104 0 2-.895 2-2s-.896-2-2-2-2 .895-2 2 .896 2 2 2zm0 4c1.104 0 2-.895 2-2s-.896-2-2-2-2 .895-2 2 .896 2 2 2zm0 6c1.104 0 2-.895 2-2s-.896-2-2-2-2 .895-2 2 .896 2 2 2zm0 6c1.104 0 2-.895 2-2s-.896-2-2-2-2 .895-2 2 .896 2 2 2z" fill="#fff"/>
  
  <!-- Turkish text -->
  <text x="50%" y="75%" fill="#fff" font-size="10" text-anchor="middle" dominant-baseline="middle">XLS</text>
</svg>